HIERARCHY
ROOT Hips
{
	OFFSET -0.001795 -0.223333 0.028219
	CHANNELS 6 Xposition Yposition Zposition Zrotation Yrotation Xrotation 
	JOINT LeftUpLeg
	{
		OFFSET 0.069520 -0.091406 -0.006815
		CHANNELS 3 Zrotation Yrotation Xrotation
		JOINT LeftLeg
		{
			OFFSET 0.034277 -0.375199 -0.004496
			CHANNELS 3 Zrotation Yrotation Xrotation
			JOINT LeftFoot
			{
				OFFSET -0.013596 -0.397961 -0.043693
				CHANNELS 3 Zrotation Yrotation Xrotation
				JOINT LeftToe
				{
					OFFSET 0.026358 -0.055791 0.119288
					CHANNELS 3 Zrotation Yrotation Xrotation
					End Site
					{
						OFFSET 0.000000 0.000000 0.000000
					}
				}
			}
		}
	}
	JOINT RightUpLeg
	{
		OFFSET -0.067670 -0.090522 -0.004320
		CHANNELS 3 Zrotation Yrotation Xrotation
		JOINT RightLeg
		{
			OFFSET -0.038290 -0.382569 -0.008850
			CHANNELS 3 Zrotation Yrotation Xrotation
			JOINT RightFoot
			{
				OFFSET 0.015774 -0.398415 -0.042312
				CHANNELS 3 Zrotation Yrotation Xrotation
				JOINT RightToe
				{
					OFFSET -0.025372 -0.048144 0.123348
					CHANNELS 3 Zrotation Yrotation Xrotation
					End Site
					{
						OFFSET 0.000000 0.000000 0.000000
					}
				}
			}
		}
	}
	JOINT Spine
	{
		OFFSET -0.002533 0.108963 -0.026696
		CHANNELS 3 Zrotation Yrotation Xrotation
		JOINT Spine1
		{
			OFFSET 0.005487 0.135180 0.001092
			CHANNELS 3 Zrotation Yrotation Xrotation
			JOINT Spine2
			{
				OFFSET 0.001457 0.052922 0.025425
				CHANNELS 3 Zrotation Yrotation Xrotation
				JOINT Neck
				{
					OFFSET -0.002778 0.213870 -0.042857
					CHANNELS 3 Zrotation Yrotation Xrotation
					JOINT Head
					{
						OFFSET 0.005152 0.064970 0.051349
						CHANNELS 3 Zrotation Yrotation Xrotation
						End Site
						{
							OFFSET 0.000000 0.000000 0.000000
						}
					}
				}
				JOINT LeftShoulder
				{
					OFFSET 0.078845 0.121749 -0.034090
					CHANNELS 3 Zrotation Yrotation Xrotation
					JOINT LeftArm
					{
						OFFSET 0.090977 0.030469 -0.008868
						CHANNELS 3 Zrotation Yrotation Xrotation
						JOINT LeftForeArm
						{
							OFFSET 0.259612 -0.012772 -0.027456
							CHANNELS 3 Zrotation Yrotation Xrotation
							JOINT LeftHand
							{
								OFFSET 0.249234 0.008986 -0.001171
								CHANNELS 3 Zrotation Yrotation Xrotation
								End Site
								{
									OFFSET 0.000000 0.000000 0.000000
								}
							}
						}
					}
				}
				JOINT RightShoulder
				{
					OFFSET -0.081759 0.118833 -0.038615
					CHANNELS 3 Zrotation Yrotation Xrotation
					JOINT RightArm
					{
						OFFSET -0.096012 0.032551 -0.009143
						CHANNELS 3 Zrotation Yrotation Xrotation
						JOINT RightForeArm
						{
							OFFSET -0.253742 -0.013329 -0.021401
							CHANNELS 3 Zrotation Yrotation Xrotation
							JOINT RightHand
							{
								OFFSET -0.255298 0.007772 -0.005559
								CHANNELS 3 Zrotation Yrotation Xrotation
								End Site
								{
									OFFSET 0.000000 0.000000 0.000000
								}
							}
						}
					}
				}
			}
		}
	}
}
MOTION
Frames: 7
Frame Time: 0.050000
0.000000 0.955852 0.000000 -1.762654 12.684506 -2.330990 5.505856 -0.055754 6.695244 -3.022660 0.256733 -1.402478 4.619826 12.130333 8.899610 0.000000 0.000000 0.000000 -2.544516 -0.050932 0.244769 2.065061 -0.242298 3.889997 -5.683288 -14.385998 11.071677 0.000000 0.000000 0.000000 0.333225 -0.652067 11.626668 2.044688 0.349694 -24.518840 -0.420455 -0.547493 28.600166 3.690587 0.388249 -24.378841 0.000000 0.000000 0.000000 -18.593407 5.381492 -5.705717 -33.003391 -0.356874 -4.964471 -59.192230 -32.952680 19.166670 0.000000 0.000000 0.000000 7.463006 -2.229745 -0.614002 38.055056 -11.226624 -8.589080 74.877190 36.512537 32.473364 0.000000 0.000000 0.000000 
0.000662 0.954091 0.002792 -1.602162 12.292897 -2.105880 4.636064 0.045352 6.921945 -2.313828 0.216870 -1.805674 5.850708 13.586884 7.206844 0.000000 0.000000 0.000000 -2.407369 0.023250 -0.548519 2.318872 -0.280402 5.471441 -5.867500 -14.837519 8.440805 0.000000 0.000000 0.000000 0.211380 -0.713503 12.716778 1.334106 0.525646 -25.523736 -0.064568 -1.840909 28.017966 3.120482 0.398168 -23.792421 0.000000 0.000000 0.000000 -17.500927 6.725323 -5.793711 -33.565055 0.241384 -5.305804 -60.374537 -33.085814 20.055002 0.000000 0.000000 0.000000 6.707007 -2.029733 -0.662116 35.966428 -13.438073 -8.615141 79.726227 34.704499 32.672792 0.000000 0.000000 0.000000 
0.001284 0.953358 0.005128 -1.611388 10.828056 -2.453289 4.608113 0.103359 7.632674 -2.192634 0.211930 -1.376605 4.449418 11.074946 6.439374 0.000000 0.000000 0.000000 -1.858699 0.097184 -1.240745 2.308803 -0.260999 6.842207 -6.130641 -15.483203 7.979198 0.000000 0.000000 0.000000 0.040428 -0.744653 13.730391 2.115900 0.344524 -26.983079 -0.143236 -0.479773 29.608203 3.050559 0.701223 -25.747176 0.000000 0.000000 0.000000 -18.857735 6.887679 -6.251850 -32.053254 -2.133903 -4.579564 -63.699850 -31.992652 20.454114 0.000000 0.000000 0.000000 7.421686 -3.786664 -1.378942 35.115594 -14.232432 -8.721069 81.331612 35.658901 34.609411 0.000000 0.000000 0.000000 
0.002173 0.952591 0.006726 -1.538468 7.704967 -2.827427 3.797319 0.314942 9.185139 -1.786541 0.190517 -1.121327 5.556486 12.628718 5.466986 0.000000 0.000000 0.000000 -2.295070 0.223186 -2.723095 2.791279 -0.311330 9.489432 -5.777037 -14.944936 9.106208 0.000000 0.000000 0.000000 -0.390937 -0.723452 15.063963 3.496167 -0.018107 -26.682294 -0.708048 -1.045303 29.977476 3.600316 0.028527 -26.842240 0.000000 0.000000 0.000000 -20.476357 8.466073 -6.835674 -31.636978 -2.067155 -4.713500 -63.974062 -30.421629 20.125390 0.000000 0.000000 0.000000 7.150643 -2.755485 -1.123220 33.220051 -12.321542 -7.840340 83.690129 36.054572 35.030980 0.000000 0.000000 0.000000 
0.001789 0.953626 0.007693 -1.604605 4.229552 -3.908341 3.847852 0.458830 10.313940 -2.750036 0.287518 -0.698297 6.537558 14.673622 7.558044 0.000000 0.000000 0.000000 -2.268495 0.406025 -4.910433 3.703355 -0.448865 13.892279 -5.295175 -14.243450 9.363205 0.000000 0.000000 0.000000 -1.086065 -0.654703 17.003993 5.359601 -0.536026 -25.963508 -1.213293 0.166586 29.460526 4.796195 -0.761332 -27.425791 0.000000 0.000000 0.000000 -20.923735 7.210486 -5.921499 -30.838325 -1.963006 -4.683135 -66.229657 -31.452713 21.993111 0.000000 0.000000 0.000000 7.606774 -2.958439 -1.317341 31.971936 -10.622235 -7.149480 84.531983 37.228491 36.098703 0.000000 0.000000 0.000000 
-0.000319 0.954896 0.009465 -2.082461 -0.079010 -4.363482 3.803878 0.643966 11.301686 -2.619184 0.300909 -0.840977 8.678221 18.248052 8.204663 0.000000 0.000000 0.000000 -3.499559 0.667900 -8.982909 6.478453 -1.028869 18.511761 -5.292930 -14.439047 8.514199 0.000000 0.000000 0.000000 -1.007532 -0.605089 18.382116 6.225179 -0.868416 -25.111735 -0.933349 -0.531250 29.559368 3.967669 -0.709402 -28.455170 0.000000 0.000000 0.000000 -21.711180 6.681496 -4.830253 -29.822228 -1.632327 -4.866149 -68.821775 -31.738183 24.105853 0.000000 0.000000 0.000000 6.342840 -2.492825 -1.308127 31.285227 -9.103850 -6.599805 86.345218 37.531849 35.806582 0.000000 0.000000 0.000000 
-0.005246 0.955000 0.013850 -2.444572 -4.020275 -4.010168 3.552486 0.829541 11.946548 -2.317240 0.294399 -1.340145 9.580381 19.748672 9.935291 0.000000 0.000000 0.000000 -5.412337 0.821759 -12.668190 9.322080 -1.534563 18.317083 -7.977613 -19.900564 10.670963 0.000000 0.000000 0.000000 -0.876640 -0.519189 18.951006 8.195773 -1.482265 -24.188253 -2.114863 -0.942840 28.984560 3.565087 -0.832112 -29.231476 0.000000 0.000000 0.000000 -21.342941 6.492713 -3.939548 -29.844590 -0.996978 -5.177927 -72.437313 -32.091476 26.828897 0.000000 0.000000 0.000000 5.847550 -2.035475 -1.282842 30.643996 -8.045941 -6.119073 86.128434 37.019315 33.657448 0.000000 0.000000 0.000000 
